<svg xmlns="http://www.w3.org/2000/svg" id="my_logo" width="40" height="40" viewBox="0 0 40 40">
    <defs>
        <style>
            .cls-2{fill:#fff}
        </style>
    </defs>
    <rect id="bg" width="40" height="40" fill="none" rx="2"/>
    <g id="그룹_14158" transform="translate(-923.597 -299.599)">
        <path id="패스_1136" d="M947.537 318.166l-8.218-4.745a.641.641 0 1 0-.641 1.11l7.9 4.559-.026 7.47a.641.641 0 0 0 .639.643.64.64 0 0 0 .641-.638l.026-7.842a.641.641 0 0 0-.321-.557z" class="cls-2"/>
        <path id="패스_1137" d="M951.284 316.43l-8.218-4.745a.641.641 0 1 0-.641 1.11l7.9 4.559-.026 7.47a.641.641 0 0 0 .639.643.64.64 0 0 0 .641-.638l.027-7.842a.64.64 0 0 0-.322-.557z" class="cls-2"/>
        <path id="패스_1138" d="M943.8 319.9l-8.218-4.745a.641.641 0 0 0-.961.553l-.027 7.842a.641.641 0 0 0 .638.643.64.64 0 0 0 .64-.639l.023-6.736 2.819 1.627v7.488a.641.641 0 0 0 1.281 0v-6.748l2.84 1.639-.026 7.471a.641.641 0 0 0 .639.643.641.641 0 0 0 .641-.639l.027-7.842a.642.642 0 0 0-.316-.557z" class="cls-2"/>
    </g>
</svg>
